<svg width="12" height="13" viewBox="0 0 12 13" fill="none" xmlns="http://www.w3.org/2000/svg">
    <g clip-path="url(#clip0_15_226)">
        <path
            d="M5.47485 0.502149C5.6954 0.48269 5.90636 0.596654 6.01103 0.791823L6.94863 2.54061C7.61249 3.78658 8.75876 4.70534 10.1194 5.08199L11.5943 5.49031C11.8169 5.55191 11.9778 5.74524 11.9979 5.97526C12.018 6.20528 11.8932 6.42359 11.6847 6.52295L10.7375 6.97416C9.18518 7.71371 8.00388 9.05737 7.46917 10.6917L7.00233 12.1188C6.93343 12.3294 6.74549 12.4786 6.52472 12.4979C6.30402 12.5172 6.09298 12.403 5.98861 12.2075L5.28101 10.8831C4.47065 9.36651 3.07396 8.24841 1.41675 7.78961L0.405634 7.50968C0.183107 7.44809 0.0222383 7.25475 0.00211585 7.02476C-0.0180066 6.79477 0.106837 6.57643 0.315289 6.47707L1.26244 6.02587C2.81481 5.2863 3.99614 3.94264 4.53077 2.30833L4.99768 0.881216C5.0665 0.670741 5.25423 0.521615 5.47485 0.502149Z"
            fill="currentcolor" />
    </g>
</svg>